<svg xmlns="http://www.w3.org/2000/svg" width="32" height="32" viewBox="0 0 32 32" fill="none">
  <g clip-path="url(#clip0_0_217)">
    <path d="M16.0142 7.84739C15.7327 7.84739 15.4544 7.86175 15.1802 7.88983C14.906 7.91792 14.6355 7.95955 14.3697 8.01419C14.1039 8.06883 13.8428 8.13649 13.5869 8.21635L12.8359 8.49211L12.1208 8.83739L11.4461 9.24796L10.8156 9.71953L10.2338 10.248L9.70484 10.8293L9.23275 11.459L8.82166 12.1332L8.47619 12.8474C8.37234 13.0917 8.27997 13.3421 8.20001 13.5978C8.12005 13.8535 8.05239 14.1145 7.99764 14.38C7.9429 14.6455 7.90128 14.9156 7.87309 15.1897C7.8449 15.4637 7.83075 15.7417 7.83075 16.0228C7.83075 16.3039 7.8451 16.5819 7.87309 16.8559C7.90092 17.1278 7.94249 17.3981 7.99764 17.6657C8.05239 17.9323 8.12005 18.1922 8.20001 18.4479C8.27997 18.7036 8.37224 18.9539 8.47619 19.1983L8.82166 19.9125L9.23275 20.5866L9.70484 21.2164L10.2338 21.7977L10.8156 22.3262L11.4461 22.7977L12.1208 23.2083L12.8359 23.5536L13.5869 23.8294L14.3697 24.0315C14.6376 24.0866 14.9081 24.1282 15.1802 24.156C15.4573 24.1842 15.7356 24.1984 16.0142 24.1983C16.2956 24.1983 16.5739 24.184 16.848 24.156C17.1201 24.1282 17.3906 24.0866 17.6585 24.0315L18.4414 23.8294L19.1924 23.5536L19.9074 23.2083L20.5822 22.7977L21.2127 22.3262L21.7946 21.7977L22.3236 21.2164L22.7957 20.5866L23.2067 19.9125L23.5522 19.1983L23.8284 18.4479C23.9084 18.1922 23.976 17.9312 24.0308 17.6657L24.1553 16.8558C24.1834 16.5818 24.1978 16.3038 24.1978 16.0227C24.1978 15.7416 24.1834 15.4636 24.1553 15.1896C24.1275 14.9177 24.0859 14.6475 24.0308 14.3799C23.976 14.1133 23.9084 13.8535 23.8284 13.5977L23.5522 12.8473L23.2067 12.1331L22.7957 11.4589L22.3236 10.8292L21.7946 10.2479L21.2127 9.71943L20.5822 9.24786L19.9074 8.83728L19.1924 8.49201L18.4414 8.21624L17.6585 8.01408L16.848 7.88973C16.571 7.86144 16.2926 7.84727 16.0142 7.84729V7.84739ZM16.0142 10.6692C16.2002 10.6692 16.3838 10.6785 16.5647 10.6967L17.0977 10.7774L17.6127 10.9086L18.1058 11.0877L18.5746 11.3122L19.0154 11.5793L19.4275 11.8865L19.8074 12.2312L20.1524 12.6107L20.4599 13.0224L20.7273 13.4638L20.9518 13.9323C21.0193 14.0926 21.0791 14.257 21.1312 14.425C21.1833 14.593 21.2271 14.7647 21.2624 14.9396C21.2978 15.1145 21.3239 15.2925 21.3431 15.4732L21.3706 16.0233C21.3706 16.2092 21.3614 16.3927 21.3431 16.5735C21.3249 16.7543 21.298 16.9323 21.2624 17.1071C21.2269 17.2819 21.183 17.4536 21.1312 17.6217L20.9518 18.1144L20.7273 18.5829L20.4599 19.0242L20.1524 19.4361L19.8074 19.8156L19.4275 20.1602L19.0154 20.4675L18.5746 20.7345L18.1058 20.959L17.6127 21.1381L17.0977 21.2693L16.5647 21.3499C16.3817 21.3682 16.1979 21.3774 16.014 21.3774C15.8301 21.3774 15.6463 21.3682 15.4633 21.3499L14.9303 21.2693C14.7553 21.2339 14.5834 21.19 14.4152 21.1381L13.9221 20.959L13.4533 20.7345L13.0125 20.4675L12.6004 20.1602L12.2205 19.8156L11.8755 19.4361L11.568 19.0242L11.3006 18.5829L11.0761 18.1144L10.8967 17.6217L10.7655 17.1071L10.6848 16.5735C10.6664 16.3907 10.6573 16.2071 10.6573 16.0233C10.6573 15.8396 10.6664 15.656 10.6848 15.4732C10.7029 15.2925 10.7299 15.1144 10.7655 14.9396C10.8007 14.766 10.8445 14.5943 10.8968 14.4251L11.0762 13.9324L11.3007 13.4639L11.5681 13.0225L11.8756 12.6108L12.2206 12.2313L12.6005 11.8866L13.0126 11.5794L13.4534 11.3123L13.9222 11.0878C14.0836 11.02 14.2482 10.9603 14.4154 10.9087L14.9305 10.7775C15.1055 10.742 15.2836 10.715 15.4635 10.6968C15.6465 10.6785 15.8303 10.6693 16.0143 10.6693L16.0142 10.6692Z" fill="#2A2C3D"/>
    <path d="M24.5295 5.52173C24.4645 5.52174 24.3996 5.52503 24.3349 5.53157C24.2703 5.5381 24.206 5.54789 24.1423 5.56089C24.0786 5.57388 24.0156 5.59006 23.9536 5.60938C23.8915 5.62871 23.8304 5.65116 23.7706 5.67663C23.7107 5.70213 23.6522 5.73063 23.5952 5.76202C23.5382 5.79335 23.4827 5.82754 23.4291 5.86444C23.3755 5.90138 23.3237 5.941 23.274 5.98315C23.2243 6.02526 23.1768 6.06984 23.1315 6.11673C23.0862 6.16365 23.0433 6.21281 23.0029 6.26404C22.9626 6.31528 22.9248 6.36852 22.8897 6.42356C22.8546 6.47855 22.8223 6.53528 22.7928 6.59353C22.7633 6.65182 22.7367 6.71156 22.7131 6.77252C22.6896 6.83347 22.6691 6.89557 22.6517 6.95859C22.6344 7.0216 22.6201 7.08544 22.6091 7.14988C22.598 7.2143 22.5902 7.27924 22.5856 7.34445C22.5823 7.39065 22.5807 7.43695 22.5807 7.48326C22.5807 7.54869 22.5839 7.61407 22.5904 7.67917C22.5969 7.74423 22.6066 7.80893 22.6195 7.87302C22.6324 7.93711 22.6485 8.00051 22.6677 8.06299C22.6869 8.12548 22.7092 8.18696 22.7346 8.24721C22.7599 8.30747 22.7882 8.36642 22.8193 8.42384C22.8505 8.48125 22.8845 8.53705 22.9211 8.59104C22.9578 8.645 22.9972 8.69707 23.039 8.74707C23.0809 8.79711 23.1252 8.84501 23.1718 8.89059C23.2184 8.93615 23.2673 8.97933 23.3182 9.01997C23.3691 9.06064 23.422 9.09872 23.4767 9.13407C23.5314 9.16942 23.5878 9.20199 23.6457 9.23166C23.7036 9.26135 23.7629 9.28811 23.8235 9.31183C23.884 9.33552 23.9457 9.35615 24.0083 9.37365C24.0709 9.39111 24.1344 9.40541 24.1984 9.4165C24.2624 9.42763 24.3269 9.43553 24.3917 9.44018C24.4376 9.44346 24.4836 9.4451 24.5296 9.4451C24.5946 9.44512 24.6595 9.44187 24.7242 9.43536C24.7888 9.42883 24.8531 9.41904 24.9168 9.40604C24.9805 9.39305 25.0435 9.37687 25.1055 9.35755C25.1676 9.33822 25.2287 9.31577 25.2885 9.2903C25.3484 9.26483 25.4069 9.23636 25.4639 9.20501C25.521 9.17364 25.5764 9.13943 25.63 9.10249C25.6836 9.06558 25.7354 9.026 25.7851 8.98388C25.8348 8.94174 25.8824 8.89713 25.9276 8.8502C25.9729 8.80329 26.0158 8.75412 26.0562 8.70289C26.0965 8.65165 26.1344 8.59841 26.1694 8.54337C26.2045 8.48834 26.2369 8.43158 26.2663 8.3733C26.2958 8.31501 26.3224 8.25527 26.346 8.19431C26.3695 8.13336 26.39 8.07126 26.4074 8.00824C26.4248 7.94523 26.439 7.88139 26.45 7.81695C26.4611 7.75253 26.4689 7.68758 26.4735 7.62237C26.4768 7.57618 26.4784 7.52988 26.4784 7.48357C26.4784 7.41818 26.4752 7.35283 26.4687 7.28776C26.4622 7.2227 26.4525 7.158 26.4396 7.09391C26.4267 7.02982 26.4106 6.96642 26.3914 6.90395C26.3722 6.84145 26.3499 6.77997 26.3246 6.71973C26.2992 6.65946 26.2709 6.60051 26.2398 6.54309C26.2086 6.48568 26.1747 6.42988 26.138 6.37589C26.1013 6.3219 26.0619 6.26979 26.02 6.21976C25.9782 6.16972 25.9339 6.12182 25.8873 6.07623C25.8407 6.03068 25.7918 5.9875 25.7409 5.94686C25.69 5.90623 25.6371 5.86818 25.5824 5.83286C25.5277 5.79751 25.4713 5.76494 25.4134 5.73527C25.3555 5.70558 25.2962 5.67882 25.2356 5.6551C25.1751 5.63141 25.1134 5.61078 25.0508 5.59328C24.9882 5.57579 24.9248 5.56145 24.8607 5.55033C24.7967 5.53923 24.7322 5.53136 24.6674 5.52675C24.6215 5.52347 24.5755 5.52183 24.5295 5.52183V5.52173Z" fill="#2A2C3D"/>
    <path d="M14.4623 0.0289847C13.5722 0.0275494 12.7779 0.0312395 12.0644 0.041286L10.1515 0.0925438C9.58479 0.117147 9.0841 0.149233 8.63467 0.190751C8.40996 0.211459 8.19796 0.234628 7.99703 0.260155C7.80582 0.284254 7.61514 0.312316 7.42509 0.344321C7.24415 0.375076 7.07244 0.408289 6.9078 0.444375C6.74316 0.48046 6.5859 0.519417 6.43418 0.561244C6.28585 0.602144 6.13869 0.647132 5.99285 0.696155C5.84994 0.744337 5.71052 0.79539 5.57284 0.849928C5.29749 0.959005 5.0289 1.08141 4.75231 1.21857C4.53949 1.32416 4.34286 1.43109 4.15608 1.54426C3.9693 1.65744 3.79235 1.77697 3.6191 1.90717C3.44068 2.0419 3.26871 2.18497 3.10376 2.33589C2.93133 2.49294 2.7552 2.66568 2.57221 2.85872C2.34227 3.09994 2.14247 3.32486 1.96512 3.54557C1.87644 3.65588 1.7934 3.76496 1.71518 3.87465C1.63783 3.98275 1.56388 4.09325 1.49344 4.20598C1.42373 4.31772 1.35771 4.43151 1.29456 4.54858C1.23043 4.66767 1.16982 4.78863 1.1128 4.91128C0.996141 5.16183 0.887269 5.43165 0.778603 5.73284C0.697986 5.95551 0.625798 6.18113 0.562193 6.40924C0.4973 6.64236 0.439584 6.88624 0.388121 7.15002C0.336658 7.41379 0.291757 7.69745 0.252288 8.01115C0.209757 8.35501 0.175779 8.69988 0.150388 9.04543C0.121683 9.42535 0.0978998 9.84341 0.0784219 10.3087L0.03229 11.8559L0.00748123 13.7419L0.000305176 16.0215L0.0213208 19.3365L0.0869307 21.8482L0.137471 22.8293L0.200621 23.6422C0.220864 23.8613 0.246192 24.0799 0.276585 24.2979C0.304264 24.4914 0.333993 24.6608 0.365978 24.8074C0.430878 25.1054 0.50762 25.4008 0.596023 25.6927C0.680667 25.9722 0.777466 26.2479 0.886142 26.519C0.992963 26.7845 1.10983 27.0406 1.23695 27.287C1.36407 27.5335 1.50144 27.7703 1.64906 27.9978C1.79668 28.2253 1.95456 28.4434 2.12309 28.6522C2.29144 28.8611 2.4705 29.061 2.65956 29.2513C2.8489 29.442 3.0486 29.6235 3.25907 29.7959C3.47202 29.9703 3.69338 30.1342 3.92234 30.2869C4.13486 30.429 4.34512 30.5591 4.55691 30.6786C4.76871 30.798 4.98235 30.9063 5.20194 31.0049C5.42153 31.1034 5.64665 31.1921 5.88182 31.2718C6.11699 31.3516 6.36201 31.4225 6.62096 31.4855C6.87992 31.5484 7.15404 31.6037 7.44416 31.6518C7.73428 31.7 8.04439 31.7413 8.37572 31.7769C8.70705 31.8125 9.06052 31.8419 9.44034 31.8665C9.82016 31.8911 10.2261 31.9108 10.6623 31.9266C11.3362 31.951 12.3562 31.9652 13.5325 31.9707L17.3404 31.963L20.9463 31.9124L22.3173 31.8739L23.2105 31.828C23.4022 31.8124 23.5898 31.7939 23.7709 31.7723C23.9519 31.7507 24.1305 31.726 24.3044 31.6979C24.4782 31.6698 24.6482 31.6384 24.8152 31.6036C24.9803 31.5692 25.1445 31.5308 25.3077 31.4884C25.4693 31.4474 25.6286 31.4008 25.7862 31.3513C25.9439 31.3017 26.0999 31.2482 26.255 31.1908C26.411 31.133 26.5656 31.0715 26.7186 31.0062C26.8727 30.9406 27.0266 30.8705 27.181 30.796C27.4181 30.6818 27.609 30.5866 27.7766 30.4936C27.9342 30.4071 28.0861 30.3104 28.2311 30.2041C28.3742 30.0987 28.5165 29.9788 28.6806 29.8277C28.8446 29.6766 29.0304 29.4945 29.2606 29.2643C29.4628 29.0621 29.6334 28.8864 29.7805 28.7266C29.9277 28.5667 30.0516 28.4229 30.1603 28.2843C30.2639 28.1528 30.3604 28.0158 30.4494 27.874C30.5362 27.7356 30.6161 27.5919 30.6976 27.4325C30.8203 27.1926 30.9293 26.9705 31.027 26.7561C31.1219 26.5495 31.2086 26.3393 31.2868 26.1258C31.3639 25.9141 31.4306 25.6987 31.4868 25.4805C31.5446 25.256 31.5945 25.019 31.6375 24.759C31.6806 24.499 31.717 24.2161 31.7485 23.9001C31.7801 23.5842 31.807 23.235 31.8305 22.8427L31.8931 21.5257L31.9468 19.8878L31.9851 18.063L31.9999 16.155L31.9657 12.4075L31.9198 10.729L31.8573 9.28788L31.7794 8.16431C31.7511 7.85163 31.7205 7.60539 31.6882 7.43891C31.6523 7.25495 31.6122 7.07185 31.568 6.88973C31.5249 6.71252 31.4776 6.53638 31.426 6.36147C31.3757 6.19105 31.3211 6.02195 31.2622 5.85432C31.204 5.68876 31.1423 5.52669 31.0777 5.36809C31.0131 5.2095 30.9432 5.0546 30.8704 4.90298C30.7976 4.75136 30.7213 4.60343 30.6413 4.45888C30.5612 4.31434 30.4778 4.17338 30.3905 4.0359C30.3033 3.89843 30.2124 3.76444 30.1178 3.63404C30.0237 3.50406 29.9256 3.37705 29.8236 3.2532C29.7221 3.13003 29.6167 3.01009 29.5076 2.89357C29.3987 2.7772 29.2861 2.66431 29.1701 2.55507C29.0539 2.44579 28.9343 2.33999 28.8108 2.23768C28.687 2.13503 28.5599 2.03626 28.4299 1.94151C28.2985 1.8458 28.1642 1.7541 28.0272 1.66657C27.8884 1.57778 27.7469 1.49314 27.603 1.41274C27.4566 1.33099 27.3079 1.25346 27.1571 1.18023C26.9067 1.05855 26.6752 0.950599 26.448 0.854849C26.2246 0.759823 25.9968 0.675426 25.7654 0.601943C25.5327 0.528644 25.2905 0.465803 25.0239 0.411572C24.7574 0.357341 24.4668 0.312132 24.1378 0.273688C23.8088 0.235245 23.4415 0.204184 23.0214 0.17835C22.6013 0.152516 22.1288 0.132216 21.5892 0.115814L19.7557 0.0748082L17.435 0.0474367L14.4633 0.029188L14.4623 0.0289847ZM16.0056 2.84836L20.2911 2.87276L21.9078 2.90393C22.353 2.91644 22.6927 2.93109 22.8919 2.94801C23.1513 2.96985 23.3983 2.99722 23.6346 3.03002C23.8614 3.06134 24.0871 3.10028 24.3112 3.14679C24.5265 3.19189 24.7319 3.24315 24.9284 3.30097C25.1249 3.35879 25.3126 3.42358 25.4927 3.49524C25.6729 3.5669 25.8451 3.64573 26.0108 3.73205C26.1753 3.81772 26.3351 3.91199 26.4896 4.01448C26.6434 4.11648 26.7916 4.22638 26.9355 4.34478C27.0795 4.46319 27.219 4.5901 27.3552 4.72583C27.4991 4.86905 27.6317 5.01493 27.754 5.16542C27.8759 5.31498 27.9886 5.47173 28.0916 5.63484C28.1958 5.80026 28.2897 5.97196 28.3727 6.14895C28.4576 6.32938 28.5339 6.52006 28.6023 6.72273C28.6708 6.92541 28.7318 7.14079 28.7858 7.37094C28.8424 7.61494 28.8898 7.86098 28.9279 8.10854C28.9689 8.37098 29.004 8.65084 29.0337 8.9505C29.0634 9.25015 29.0881 9.56969 29.1083 9.91158C29.1245 10.1858 29.1387 10.5477 29.1507 10.9751L29.1807 12.4323L29.2037 16.0019L29.1775 19.5681L29.1462 21.0212L29.103 22.078C29.0731 22.5729 29.0415 22.9889 29.0038 23.351C28.9848 23.532 28.9643 23.6995 28.9416 23.8567C28.9202 24.0051 28.895 24.153 28.8658 24.3001C28.8391 24.4344 28.8082 24.5677 28.773 24.7C28.7393 24.8262 28.7014 24.9512 28.6593 25.0749C28.6169 25.1991 28.5708 25.322 28.521 25.4435C28.4684 25.5718 28.4129 25.6988 28.3545 25.8245C28.3025 25.9368 28.2478 26.046 28.19 26.1523C28.1328 26.2575 28.0721 26.3608 28.0079 26.4619C27.9444 26.562 27.8778 26.6593 27.808 26.7535C27.7387 26.8474 27.666 26.9388 27.5901 27.0275C27.5144 27.1157 27.4355 27.2012 27.3536 27.2838C27.2716 27.3663 27.1865 27.4459 27.0983 27.5228C27.0102 27.5997 26.9187 27.6735 26.8241 27.7447C26.7295 27.8158 26.6316 27.8841 26.5304 27.9495C26.4292 28.0149 26.3248 28.0776 26.2171 28.1375C26.1094 28.1974 25.9982 28.2546 25.8839 28.309C25.7676 28.3643 25.6497 28.416 25.5304 28.4642C25.4069 28.514 25.2822 28.5603 25.1562 28.6031C24.8999 28.6905 24.6295 28.7672 24.345 28.8333C24.0484 28.9018 23.749 28.9578 23.4478 29.0012C23.3319 29.0181 23.0657 29.034 22.6843 29.0488L21.2311 29.0892L17.111 29.1427L12.7985 29.1494L11.105 29.1314L10.0053 29.0972L9.19441 29.0402C8.94263 29.0189 8.70848 28.9954 8.4891 28.9686C8.26972 28.9418 8.0654 28.912 7.87319 28.8784C7.69104 28.8469 7.50999 28.8093 7.33037 28.7656C7.16658 28.7258 7.00448 28.6793 6.84444 28.6264C6.69016 28.5751 6.54264 28.5188 6.39912 28.4567C6.2556 28.3947 6.11618 28.3267 5.97809 28.2525C5.84 28.1783 5.70335 28.0977 5.56515 28.0099C5.4609 27.9436 5.36012 27.8766 5.26314 27.8056C5.16616 27.7345 5.07246 27.6637 4.98225 27.5895C4.89204 27.5152 4.80541 27.4388 4.72186 27.36C4.63887 27.2817 4.55872 27.2004 4.48157 27.1162C4.40468 27.0324 4.33117 26.9461 4.26064 26.8567C4.18984 26.7669 4.12237 26.6746 4.05838 26.5799C3.99344 26.4837 3.93199 26.3852 3.87416 26.2846C3.81573 26.1831 3.76016 26.0782 3.70737 25.9699C3.65369 25.8596 3.6036 25.7475 3.55718 25.634C3.51003 25.5183 3.46533 25.399 3.4233 25.2758C3.33923 25.0292 3.26542 24.7668 3.20125 24.4869C3.13707 24.2071 3.08233 23.9098 3.03599 23.593C2.98966 23.2762 2.95234 22.9404 2.92261 22.5834C2.90067 22.3205 2.88325 21.9109 2.86992 21.3942L2.84203 19.5567L2.85229 14.8722L2.93297 10.396L2.99448 8.81887L3.02933 8.29758C3.04143 8.15836 3.05393 8.05523 3.06675 7.99331C3.10899 7.78961 3.15153 7.60006 3.19551 7.42261C3.23659 7.2552 3.2823 7.08896 3.33257 6.92407C3.38034 6.76846 3.43068 6.62268 3.4845 6.48459C3.5364 6.35082 3.59424 6.21944 3.65785 6.09083C3.71998 5.96576 3.78671 5.84602 3.85919 5.72946C3.93167 5.6129 4.00989 5.49983 4.09518 5.38737C4.18048 5.27491 4.27233 5.16388 4.37228 5.05132C4.47224 4.93876 4.58018 4.82507 4.69726 4.70789C4.8337 4.57067 4.97577 4.43917 5.12311 4.31372C5.26223 4.19536 5.4073 4.08419 5.55777 3.98065C5.7057 3.87813 5.85743 3.78689 6.0154 3.70304C6.17338 3.61918 6.33761 3.54342 6.51035 3.47525C6.68308 3.40707 6.86454 3.34608 7.05675 3.29072C7.25869 3.23408 7.46287 3.18575 7.66877 3.14587C7.88528 3.10342 8.11523 3.06641 8.36075 3.03412C8.60628 3.00183 8.86749 2.97395 9.14674 2.94975C9.34152 2.93294 9.67715 2.91797 10.1191 2.90536L11.7276 2.87358L16.0064 2.84744L16.0056 2.84836Z" fill="#2A2C3D"/>
  </g>
  <defs>
    <clipPath id="clip0_0_217">
      <rect width="32" height="32" fill="white"/>
    </clipPath>
  </defs>
</svg>