<svg width="41" height="43" viewBox="0 0 41 43" fill="none" xmlns="http://www.w3.org/2000/svg">
<path d="M39.2885 13.262C38.5328 11.4802 37.5328 9.81963 36.3188 8.33136C34.5243 6.06563 32.2849 4.21749 29.7479 2.90859C27.2109 1.59971 24.4338 0.859733 21.5995 0.73737C18.7652 0.615008 15.9379 1.11303 13.3036 2.19869C10.6695 3.28433 8.28806 4.93298 6.31622 7.03612C4.34437 9.13925 2.82678 11.6492 1.86334 14.4008C0.899896 17.1523 0.512424 20.0831 0.72645 23.0001C0.940491 25.9173 1.75114 28.7546 3.10509 31.3252C4.45903 33.896 6.32556 36.1419 8.58182 37.9151C10.0295 39.0756 11.6292 40.019 13.3333 40.7173C15.7224 41.727 18.2795 42.247 20.8615 42.2485C26.1912 42.2365 31.2988 40.0455 35.0648 36.1562C38.8307 32.2668 40.9476 26.9964 40.9515 21.5001C40.9554 18.665 40.3892 15.8599 39.2885 13.262ZM20.8467 4.94728C23.1654 4.94704 25.4561 5.46965 27.5582 6.47853C27.0456 6.70695 26.5066 6.86649 25.9545 6.95323C24.138 7.2244 22.4552 8.09412 21.1573 9.43259C19.8594 10.771 19.016 12.5065 18.753 14.3798C18.6376 15.4304 18.1742 16.4078 17.4412 17.1471C16.7081 17.8864 15.7502 18.3421 14.7291 18.4376C12.9125 18.7088 11.2297 19.5785 9.9318 20.917C8.63391 22.2555 7.79053 23.9908 7.52758 25.8642C7.43854 26.8632 7.02524 27.802 6.35455 28.5285C5.19733 26.007 4.67748 23.2245 4.84337 20.44C5.00926 17.6556 5.85549 14.9597 7.30332 12.6031C8.75114 10.2466 10.7535 8.30611 13.1241 6.96218C15.4947 5.61824 18.1564 4.91459 20.8615 4.91666L20.8467 4.94728ZM8.56697 32.2189C8.74515 32.0504 8.92333 31.8973 9.10152 31.7135C10.4225 30.3928 11.2704 28.6494 11.507 26.7676C11.6029 25.7098 12.0608 24.7219 12.7988 23.9807C13.509 23.2185 14.4648 22.7501 15.4864 22.6639C17.3029 22.3927 18.9857 21.5229 20.2836 20.1845C21.5815 18.846 22.4249 17.1106 22.6879 15.2373C22.7522 14.131 23.2125 13.0886 23.9797 12.3126C24.7074 11.5651 25.6723 11.1138 26.697 11.0417C28.3658 10.8049 29.9222 10.0398 31.1515 8.85198C32.5513 10.0495 33.7371 11.4902 34.6557 13.1089C34.5993 13.1874 34.5346 13.2594 34.4627 13.3232C33.754 14.0922 32.7994 14.5709 31.7751 14.6707C29.9566 14.9372 28.2713 15.8054 26.9725 17.1446C25.6739 18.484 24.832 20.222 24.5736 22.0973C24.4689 23.1514 24.0141 24.1358 23.2863 24.8837C22.5582 25.6317 21.602 26.0971 20.5794 26.201C18.7575 26.4701 17.0685 27.3382 15.763 28.676C14.4576 30.014 13.6055 31.7505 13.3333 33.6276C13.2534 34.3759 13.0041 35.0946 12.6057 35.7254C11.0823 34.7926 9.71786 33.608 8.56697 32.2189ZM20.8467 38.1295C19.34 38.1312 17.8404 37.9147 16.3921 37.4864C16.8876 36.5339 17.2097 35.4959 17.3424 34.4239C17.4465 33.372 17.8992 32.3894 18.6241 31.6419C19.349 30.8943 20.3019 30.4275 21.3218 30.3201C23.141 30.052 24.8272 29.1836 26.1281 27.8448C27.4288 26.5062 28.2745 24.769 28.5382 22.8935C28.6423 21.8417 29.095 20.8591 29.8199 20.1116C30.5448 19.364 31.4976 18.8971 32.5176 18.7898C33.8866 18.6062 35.1915 18.0805 36.3188 17.2585C36.9448 19.7053 37.0189 22.2674 36.5356 24.7484C36.0522 27.2293 35.0241 29.5632 33.5304 31.5708C32.0366 33.5783 30.1169 35.2065 27.9181 36.3301C25.7195 37.4537 23.3005 38.0431 20.8467 38.0529V38.1295Z" fill="#60D59D"/>
</svg>
