<svg xmlns="http://www.w3.org/2000/svg" width="49" height="48" viewBox="0 0 49 48" fill="none">
  <path d="M5.01874 10.5H8.01874" stroke="#2F6B4F" stroke-width="2" stroke-linecap="round" stroke-linejoin="round"/>
  <path d="M23.0187 10.5H26.0187" stroke="#2F6B4F" stroke-width="2" stroke-linecap="round" stroke-linejoin="round"/>
  <path d="M5.01874 25.5H9.51874" stroke="#2F6B4F" stroke-width="2" stroke-linecap="round" stroke-linejoin="round"/>
  <path d="M21.5187 25.5H26.0187" stroke="#2F6B4F" stroke-width="2" stroke-linecap="round" stroke-linejoin="round"/>
  <path d="M32 19.5H45.5" stroke="#2F6B4F" stroke-width="2" stroke-linecap="round" stroke-linejoin="round"/>
  <path d="M32.0187 25.5H45.5187" stroke="#2F6B4F" stroke-width="2" stroke-linecap="round" stroke-linejoin="round"/>
  <path d="M14 31.5H45.5" stroke="#2F6B4F" stroke-width="2" stroke-linecap="round" stroke-linejoin="round"/>
  <path d="M14 37.5H45.5" stroke="#2F6B4F" stroke-width="2" stroke-linecap="round" stroke-linejoin="round"/>
  <path d="M8.01874 25.5V10.5L15.5187 22.5L23.0187 10.5V25.5" stroke="#2F6B4F" stroke-width="2" stroke-linecap="round" stroke-linejoin="round"/>
  <path d="M5 10.5H8" stroke="#2F6B4F" stroke-width="2" stroke-linecap="round" stroke-linejoin="round"/>
  <path d="M23 10.5H26" stroke="#2F6B4F" stroke-width="2" stroke-linecap="round" stroke-linejoin="round"/>
  <path d="M5 25.5H9.5" stroke="#2F6B4F" stroke-width="2" stroke-linecap="round" stroke-linejoin="round"/>
  <path d="M21.5 25.5H26" stroke="#2F6B4F" stroke-width="2" stroke-linecap="round" stroke-linejoin="round"/>
  <path d="M32 19.5H45.5" stroke="#2F6B4F" stroke-width="2" stroke-linecap="round" stroke-linejoin="round"/>
  <path d="M32 25.5H45.5" stroke="#2F6B4F" stroke-width="2" stroke-linecap="round" stroke-linejoin="round"/>
  <path d="M14 31.5H45.5" stroke="#2F6B4F" stroke-width="2" stroke-linecap="round" stroke-linejoin="round"/>
  <path d="M14 37.5H45.5" stroke="#2F6B4F" stroke-width="2" stroke-linecap="round" stroke-linejoin="round"/>
  <path d="M8 25.5V10.5L15.5 22.5L23 10.5V25.5" stroke="#2F6B4F" stroke-width="2" stroke-linecap="round" stroke-linejoin="round"/>
</svg>